:FULLY-SPECIFIED
:FORCE-ALL-JOINTS-BE-3DOF
:DEGREES
17
root 7.54968 15.7441 -35.0542 7.81756 -3.28772 -7.23944
lfemur -43.1004 4.86719 -9.02251
ltibia 29.9249 0 0
lfoot -12.7707 11.0452 0
ltoes -13.9258 0 0
rfemur 10.4414 7.35675 33.4672
rtibia 0.0300662 0 0
rfoot -10.4196 1.35704 0
rtoes -24.8132 0 0
lowerback -7.18144 1.17181 3.90517
upperback -0.998461 1.12435 3.34023
thorax 3.01285 0.580154 1.39418
lowerneck -19.3702 -4.87916 -12.4878
upperneck 14.9298 -6.36395 16.0473
head 8.82108 -2.14027 6.78207
lclavicle 1.97874e-14 1.58046e-14 0
lhumerus -40.5678 -6.68105 89.4553
lradius 27.6089 0 0
lwrist 6.2161 0 0
lhand -14.8571 -26.8398 0
lfingers 7.12502 0 0
lthumb 11.3121 2.9603 0
rclavicle 1.97874e-14 1.58046e-14 0
rhumerus -42.0067 20.7432 -89.5425
rradius 63.2602 0 0
rwrist -31.4808 0 0
rhand -31.5826 -29.6997 0
rfingers 7.12502 0 0
rthumb -4.84567 -59.6204 0
18
root 7.57322 15.7376 -34.8704 7.82248 -3.64127 -7.32671
lfemur -43.0362 4.82809 -8.82665
ltibia 29.2397 0 0
lfoot -12.6413 11.141 0
ltoes -13.8989 0 0
rfemur 11.3467 7.39513 33.4102
rtibia -0.529891 0 0
rfoot -10.7202 1.28444 0
rtoes -25.838 0 0
lowerback -7.30734 1.21521 3.97985
upperback -0.985491 1.16949 3.37062
thorax 3.09653 0.603477 1.38993
lowerneck -19.4495 -4.85369 -12.4333
upperneck 15.0296 -6.32904 15.9611
head 8.85794 -2.12497 6.74963
lclavicle 2.05378e-14 1.55965e-14 0
lhumerus -40.8005 -6.85068 89.6094
lradius 27.5298 0 0
lwrist 6.02747 0 0
lhand -14.7193 -26.9183 0
lfingers 7.12502 0 0
lthumb 11.4445 2.86947 0
rclavicle 2.05378e-14 1.55965e-14 0
rhumerus -42.1877 20.8218 -89.8472
rradius 63.3036 0 0
rwrist -31.4764 0 0
rhand -31.4699 -29.8534 0
rfingers 7.12502 0 0
rthumb -4.73678 -59.7766 0
19
root 7.59796 15.7319 -34.6828 7.82386 -3.99447 -7.40049
lfemur -42.9541 4.79479 -8.65726
ltibia 28.5831 0 0
lfoot -12.5128 11.2287 0
ltoes -13.8587 0 0
rfemur 12.2041 7.42175 33.3306
rtibia -0.996912 0 0
rfoot -10.9848 1.19926 0
rtoes -26.7986 0 0
lowerback -7.42628 1.25627 4.0435
upperback -0.974467 1.21265 3.39885
thorax 3.1742 0.625783 1.3893
lowerneck -19.5305 -4.82804 -12.3797
upperneck 15.1295 -6.29314 15.8736
head 8.89504 -2.10936 6.71703
lclavicle 2.12673e-14 1.53743e-14 0
lhumerus -41.0241 -7.01193 89.7567
lradius 27.4439 0 0
lwrist 5.83152 0 0
lhand -14.5633 -26.9815 0
lfingers 7.12502 0 0
lthumb 11.5946 2.79207 0
rclavicle 2.12673e-14 1.53743e-14 0
rhumerus -42.3637 20.8879 -90.1434
rradius 63.3113 0 0
rwrist -31.4557 0 0
rhand -31.358 -29.9963 0
rfingers 7.12502 0 0
rthumb -4.6288 -59.922 0
20
root 7.62375 15.7271 -34.4924 7.82191 -4.34597 -7.46122
lfemur -42.8556 4.7671 -8.51362
ltibia 27.956 0 0
lfoot -12.3859 11.3084 0
ltoes -13.8061 0 0
rfemur 13.0127 7.43713 33.2301
rtibia -1.37405 0 0
rfoot -11.2141 1.10248 0
rtoes -27.6948 0 0
lowerback -7.53816 1.29495 4.09644
upperback -0.965329 1.25377 3.42492
thorax 3.24587 0.647041 1.3921
lowerneck -19.6127 -4.80233 -12.327
upperneck 15.2291 -6.25644 15.7852
head 8.9322 -2.09354 6.68441
lclavicle 2.1974e-14 1.51396e-14 0
lhumerus -41.2383 -7.1646 89.8971
lradius 27.3521 0 0
lwrist 5.62938 0 0
lhand -14.3906 -27.0297 0
lfingers 7.12502 0 0
lthumb 11.7607 2.72768 0
rclavicle 2.1974e-14 1.51396e-14 0
rhumerus -42.5342 20.9418 -90.4305
rradius 63.285 0 0
rwrist -31.4196 0 0
rhand -31.2475 -30.1282 0
rfingers 7.12502 0 0
rthumb -4.5221 -60.0564 0
21
root 7.65041 15.7232 -34.3 7.81678 -4.69442 -7.5093
lfemur -42.7417 4.74485 -8.395
ltibia 27.3596 0 0
lfoot -12.2608 11.3802 0
ltoes -13.7418 0 0
rfemur 13.7718 7.44177 33.1101
rtibia -1.66436 0 0
rfoot -11.4091 0.995099 0
rtoes -28.5261 0 0
lowerback -7.64288 1.33123 4.13901
upperback -0.95802 1.29279 3.44883
thorax 3.31155 0.667216 1.39814
lowerneck -19.6958 -4.77666 -12.2755
upperneck 15.3281 -6.21912 15.6964
head 8.96929 -2.07756 6.65191
lclavicle 2.26563e-14 1.48939e-14 0
lhumerus -41.4425 -7.30852 90.0303
lradius 27.2549 0 0
lwrist 5.42221 0 0
lhand -14.2027 -27.0636 0
lfingers 7.12502 0 0
lthumb 11.9413 2.6759 0
rclavicle 2.26563e-14 1.48939e-14 0
rhumerus -42.6989 20.984 -90.7078
rradius 63.2266 0 0
rwrist -31.369 0 0
rhand -31.1387 -30.2494 0
rfingers 7.12502 0 0
rthumb -4.41705 -60.1799 0
22
root 7.67781 15.7201 -34.1067 7.80867 -5.03847 -7.54516
lfemur -42.6138 4.72788 -8.30066
ltibia 26.7949 0 0
lfoot -12.1381 11.4441 0
ltoes -13.6668 0 0
rfemur 14.4805 7.4362 32.9721
rtibia -1.87089 0 0
rfoot -11.5706 0.878092 0
rtoes -29.2922 0 0
lowerback -7.74036 1.36505 4.17153
upperback -0.952479 1.32964 3.4706
thorax 3.37126 0.686276 1.40725
lowerneck -19.7794 -4.75114 -12.2254
upperneck 15.4261 -6.18138 15.6076
head 9.00614 -2.06151 6.61966
lclavicle 2.33125e-14 1.46389e-14 0
lhumerus -41.6365 -7.44349 90.1561
lradius 27.1531 0 0
lwrist 5.21114 0 0
lhand -14.0012 -27.0837 0
lfingers 7.12502 0 0
lthumb 12.135 2.63634 0
rclavicle 2.33125e-14 1.46389e-14 0
rhumerus -42.8572 21.0149 -90.9746
rradius 63.138 0 0
rwrist -31.305 0 0
rhand -31.032 -30.3597 0
rfingers 7.12502 0 0
rthumb -4.31403 -60.2926 0
23
root 7.70577 15.7178 -33.9134 7.79775 -5.37676 -7.56922
lfemur -42.4731 4.716 -8.22988
ltibia 26.263 0 0
lfoot -12.0182 11.5003 0
ltoes -13.5818 0 0
rfemur 15.138 7.42093 32.8175
rtibia -1.99669 0 0
rfoot -11.6995 0.752455 0
rtoes -29.9927 0 0
lowerback -7.83048 1.39639 4.19434
upperback -0.948648 1.36425 3.49021
thorax 3.42501 0.704186 1.41922
lowerneck -19.8631 -4.72588 -12.1767
upperneck 15.5227 -6.14341 15.5191
head 9.0426 -2.04546 6.58778
lclavicle 2.39407e-14 1.43761e-14 0
lhumerus -41.8198 -7.56933 90.2743
lradius 27.0473 0 0
lwrist 4.99731 0 0
lhand -13.7877 -27.0907 0
lfingers 7.12502 0 0
lthumb 12.3402 2.60858 0
rclavicle 2.39407e-14 1.43761e-14 0
rhumerus -43.0089 21.0349 -91.2301
rradius 63.0209 0 0
rwrist -31.2283 0 0
rhand -30.9278 -30.4593 0
rfingers 7.12502 0 0
rthumb -4.21339 -60.3944 0
24
root 7.73414 15.7163 -33.7209 7.7842 -5.70794 -7.5819
lfemur -42.3208 4.70905 -8.18194
ltibia 25.7648 0 0
lfoot -11.9015 11.5489 0
ltoes -13.4878 0 0
rfemur 15.7435 7.39645 32.6478
rtibia -2.04482 0 0
rfoot -11.7967 0.619174 0
rtoes -30.6273 0 0
lowerback -7.91316 1.4252 4.20777
upperback -0.946467 1.39657 3.50769
thorax 3.47281 0.720914 1.43388
lowerneck -19.9464 -4.70098 -12.1297
upperneck 15.6175 -6.1054 15.4313
head 9.07851 -2.02949 6.55643
lclavicle 2.45392e-14 1.41072e-14 0
lhumerus -41.9921 -7.68586 90.3847
lradius 26.9382 0 0
lwrist 4.78188 0 0
lhand -13.5637 -27.085 0
lfingers 7.12502 0 0
lthumb 12.5555 2.59223 0
rclavicle 2.45392e-14 1.41072e-14 0
rhumerus -43.1534 21.0443 -91.4737
rradius 62.8774 0 0
rwrist -31.14 0 0
rhand -30.8265 -30.548 0
rfingers 7.12502 0 0
rthumb -4.11552 -60.4853 0
25
root 7.76275 15.7156 -33.5302 7.76821 -6.03067 -7.58361
lfemur -42.1582 4.70684 -8.1561
ltibia 25.3015 0 0
lfoot -11.7885 11.5898 0
ltoes -13.3856 0 0
rfemur 16.2962 7.3633 32.4645
rtibia -2.01833 0 0
rfoot -11.8629 0.479241 0
rtoes -31.1956 0 0
lowerback -7.9883 1.45146 4.21215
upperback -0.945878 1.42652 3.52302
thorax 3.51468 0.736427 1.45104
lowerneck -20.029 -4.67656 -12.0844
upperneck 15.7101 -6.06754 15.3448
head 9.11372 -2.01368 6.52573
lclavicle 2.51065e-14 1.38337e-14 0
lhumerus -42.1529 -7.79288 90.4871
lradius 26.8265 0 0
lwrist 4.56597 0 0
lhand -13.3308 -27.0672 0
lfingers 7.12502 0 0
lthumb 12.7794 2.58688 0
rclavicle 2.51065e-14 1.38337e-14 0
rhumerus -43.2904 21.0435 -91.7046
rradius 62.7091 0 0
rwrist -31.041 0 0
rhand -30.7283 -30.626 0
rfingers 7.12502 0 0
rthumb -4.02078 -60.5654 0
26
root 7.79146 15.7155 -33.3422 7.74994 -6.3436 -7.57478
lfemur -41.9866 4.70921 -8.15163
ltibia 24.8741 0 0
lfoot -11.6797 11.6233 0
ltoes -13.2761 0 0
rfemur 16.7952 7.32198 32.2692
rtibia -1.92028 0 0
rfoot -11.8991 0.333641 0
rtoes -31.6971 0 0
lowerback -8.0558 1.47512 4.20781
upperback -0.946821 1.45406 3.53622
thorax 3.55064 0.75069 1.47051
lowerneck -20.1105 -4.65273 -12.0412
upperneck 15.8 -6.03002 15.2598
head 9.14806 -1.99811 6.49581
lclavicle 2.56406e-14 1.35574e-14 0
lhumerus -42.3019 -7.89022 90.5812
lradius 26.7129 0 0
lwrist 4.35075 0 0
lhand -13.0905 -27.038 0
lfingers 7.12502 0 0
lthumb 13.0103 2.59214 0
rclavicle 2.56406e-14 1.35574e-14 0
rhumerus -43.4194 21.0331 -91.9221
rradius 62.5179 0 0
rwrist -30.9322 0 0
rhand -30.6339 -30.6932 0
rfingers 7.12502 0 0
rthumb -3.92955 -60.6347 0
27
root 7.8201 15.7162 -33.1578 7.72957 -6.64537 -7.55583
lfemur -41.8072 4.71598 -8.16781
ltibia 24.4836 0 0
lfoot -11.5754 11.6493 0
ltoes -13.16 0 0
rfemur 17.2398 7.27299 32.0633
rtibia -1.75371 0 0
rfoot -11.9061 0.183366 0
rtoes -32.1316 0 0
lowerback -8.11556 1.49614 4.19507
upperback -0.949237 1.4791 3.54729
thorax 3.58069 0.763672 1.4921
lowerneck -20.1904 -4.62958 -12.0001
upperneck 15.887 -5.99304 15.1767
head 9.1814 -1.98284 6.46681
lclavicle 2.61399e-14 1.32796e-14 0
lhumerus -42.4387 -7.97768 90.6668
lradius 26.5981 0 0
lwrist 4.13734 0 0
lhand -12.8444 -26.9978 0
lfingers 7.12502 0 0
lthumb 13.2468 2.6076 0
rclavicle 2.61399e-14 1.32796e-14 0
rhumerus -43.5401 21.0133 -92.1256
rradius 62.3057 0 0
rwrist -30.8146 0 0
rhand -30.5434 -30.7497 0
rfingers 7.12502 0 0
rthumb -3.8422 -60.6931 0
28
root 7.84851 15.7176 -32.978 7.7073 -6.93463 -7.52717
lfemur -41.6213 4.72697 -8.2039
ltibia 24.1311 0 0
lfoot -11.4762 11.668 0
ltoes -13.0383 0 0
rfemur 17.6291 7.21686 31.8482
rtibia -1.52168 0 0
rfoot -11.8848 0.0294031 0
rtoes -32.4987 0 0
lowerback -8.16749 1.5145 4.17428
upperback -0.953068 1.50159 3.55623
thorax 3.60485 0.775337 1.51563
lowerneck -20.2684 -4.60724 -11.9613
upperneck 15.9705 -5.95679 15.0961
head 9.21356 -1.96795 6.43887
lclavicle 2.66026e-14 1.30022e-14 0
lhumerus -42.5629 -8.05508 90.7438
lradius 26.4827 0 0
lwrist 3.92689 0 0
lhand -12.5941 -26.9472 0
lfingers 7.12502 0 0
lthumb 13.4873 2.63286 0
rclavicle 2.66026e-14 1.30022e-14 0
rhumerus -43.6519 20.9846 -92.3143
rradius 62.0744 0 0
rwrist -30.689 0 0
rhand -30.4573 -30.7954 0
rfingers 7.12502 0 0
rthumb -3.75909 -60.7407 0
29
root 7.87653 15.7196 -32.8037 7.68329 -7.21003 -7.48922
lfemur -41.43 4.74202 -8.25918
ltibia 23.8177 0 0
lfoot -11.3824 11.6795 0
ltoes -12.9119 0 0
rfemur 17.9623 7.15409 31.6255
rtibia -1.22724 0 0
rfoot -11.836 -0.127259 0
rtoes -32.798 0 0
lowerback -8.21149 1.53015 4.14576
upperback -0.958253 1.52147 3.56305
thorax 3.62314 0.785654 1.54092
lowerneck -20.3441 -4.58581 -11.925
upperneck 16.0503 -5.92145 15.0182
head 9.24439 -1.95353 6.41212
lclavicle 2.70271e-14 1.27266e-14 0
lhumerus -42.674 -8.12223 90.8118
lradius 26.3675 0 0
lwrist 3.72054 0 0
lhand -12.3412 -26.8868 0
lfingers 7.12502 0 0
lthumb 13.7304 2.66751 0
rclavicle 2.70271e-14 1.27266e-14 0
rhumerus -43.7546 20.9473 -92.4875
rradius 61.8256 0 0
rwrist -30.5565 0 0
rhand -30.376 -30.8305 0
rfingers 7.12502 0 0
rthumb -3.6806 -60.7774 0
30
root 7.90401 15.7222 -32.6358 7.65773 -7.47023 -7.4424
lfemur -41.2347 4.76095 -8.33291
ltibia 23.5445 0 0
lfoot -11.2945 11.6838 0
ltoes -12.7814 0 0
rfemur 18.2386 7.0852 31.3966
rtibia -0.873445 0 0
rfoot -11.7607 -0.285631 0
rtoes -33.0291 0 0
lowerback -8.24746 1.54306 4.10984
upperback -0.964735 1.53866 3.56774
thorax 3.63556 0.794589 1.56776
lowerneck -20.417 -4.5654 -11.8914
upperneck 16.1259 -5.88723 14.9435
head 9.27374 -1.93964 6.38669
lclavicle 2.74115e-14 1.24545e-14 0
lhumerus -42.7718 -8.17895 90.8706
lradius 26.253 0 0
lwrist 3.51944 0 0
lhand -12.0871 -26.8172 0
lfingers 7.12502 0 0
lthumb 13.9745 2.71116 0
rclavicle 2.74115e-14 1.24545e-14 0
rhumerus -43.8476 20.9019 -92.6445
rradius 61.5614 0 0
rwrist -30.4179 0 0
rhand -30.2999 -30.8548 0
rfingers 7.12502 0 0
rthumb -3.6071 -60.8034 0
